<svg width="44" height="45" viewBox="0 0 44 45" fill="none" xmlns="http://www.w3.org/2000/svg">
<rect x="6" y="14" width="2" height="17" fill="#F30005"/>
<rect x="23" y="14" width="2" height="17" fill="#F30005"/>
<path d="M21.96 26.72C27.92 26.72 30.64 28.88 30.68 35.36C30.68 43.36 25.84 43.92 23.76 43.92H18.84V36.92H22.92C24.2 36.92 25.56 36.76 25.56 35.24C25.56 33.84 24.28 33.68 23.36 33.68C20.44 33.68 20.44 34.28 17.96 36.92L13.04 42.4C12.8 42.6 11.32 44 8.28 44C3.04 44 0.599999 41.12 0.599999 35.12C0.599999 29.76 2.56 26.8 6.52 26.8H11.24L11.24 33.72H7.52C6.92 33.72 5.2 33.64 5.2 35.24C5.2 36.24 5.8 36.96 7.12 36.96C9.68 36.96 10 35.96 12.12 33.72L16.16 29.16C17.32 27.92 18.4 26.72 21.96 26.72ZM30 24.1794L1.24 24.1794L1.24 17.4594H14.16L1.24 13.1394L1.24 6.77937L13.96 11.2594L30 6.61937V13.3794L15 17.4594L30 17.4594V24.1794Z" fill="#F30005"/>
</svg>
